<svg xmlns="http://www.w3.org/2000/svg" xmlns:xlink="http://www.w3.org/1999/xlink" id="Layer_1" x="0" y="0" version="1.1" viewBox="0 0 20.3 20.4" xml:space="preserve" style="enable-background:new 0 0 20.3 20.4"><title>huertatipografica</title><path d="M11.6,7.1v0.6h0.9c0.1,0,0.3,0.1,0.3,0.2c0,0,0,0,0,0.1v4.6c0,1.4,1.1,2.5,2.4,2.5c0.1,0,0.2,0,0.3,0l2.2-1.3v-0.9	C17.4,13,17.1,13,16.8,13c-1,0-1.4-0.6-1.4-2V8.1c0-0.1,0.1-0.3,0.2-0.3c0,0,0,0,0.1,0h2V6.5h-2c-0.2,0-0.3-0.2-0.3-0.4c0,0,0,0,0,0	v-1h-0.7L11.6,7.1z M3.2,15h2.6V8.7c0-0.3,0.2-0.4,0.9-0.4c1,0,1.5,0.6,1.5,2V15h2.6V8.8c0-1.4-1.1-2.6-2.5-2.6c-0.1,0-0.1,0-0.2,0	l-1.7,1C6.3,7.3,6.1,7.4,5.9,7.4c-0.1,0-0.2-0.2-0.2-0.3c0,0,0,0,0,0V3H3.2V15z M17.5,0c1.4-0.2,2.6,0.8,2.8,2.2c0,0.2,0,0.4,0,0.6	v14.8c0.2,1.4-0.8,2.6-2.2,2.8c-0.2,0-0.4,0-0.6,0H2.8c-1.4,0.2-2.6-0.8-2.8-2.2c0-0.2,0-0.4,0-0.6V2.8C-0.1,1.4,0.9,0.2,2.2,0	c0.2,0,0.4,0,0.6,0H17.5z"/></svg>