<?xml version="1.0" encoding="utf-8"?>
<!-- Generator: Adobe Illustrator 19.2.0, SVG Export Plug-In . SVG Version: 6.00 Build 0)  -->
<svg version="1.1" id="Layer_1" xmlns="http://www.w3.org/2000/svg" xmlns:xlink="http://www.w3.org/1999/xlink" x="0px" y="0px"
	 viewBox="0 0 125.4 52.3" style="enable-background:new 0 0 125.4 52.3;" xml:space="preserve">
<style type="text/css">
	.st0{enable-background:new    ;}
</style>
<g id="Layer_1_1_">
	<g class="st0">
		<path d="M0,33.7h22.3V13.3H7.4l9.3,33.2h-4.3L1.5,7.6h13.2v22.8h1.9V7.6h3.8v22.8h34.2V19.9H30.9v-3.8h18.6l1.3-4.8H39.7V7.6h16.5
			l-10.4,38h6V28.5H39.7V13.3h-6l9.2,33.3h-4.3l-5-18.1h-3.6v17.1h4.8l0-1.9H2.4V37h53.2v3.8l-33.2,0l8.8-32.3h-5.1v17.1H2.4v-3.8
			l46.6,0l-3.3,11.9H58v1H44.4l3.3-11.9l-44.4,0v1.9h21.9V7.6h7.3l-8.8,32.3l31,0V38H3.3v4.8h32.4l0,3.8H29v-19h5.3l5,18.1h2.3
			l-9.2-33.3h8.2v15.2h12.1v19h-8.2l10.4-38H40.6v1.9H52l-1.8,6.7H31.8V19h23.8v12.3H19.5V8.5h-1.9v22.8h-3.8V8.5h-11l10.4,37h2.3
			L6.2,12.3h17.1v22.3H0V33.7z"/>
		<path d="M57,33.7h6.2V8.5h-2.9v13.3h22.3v3.8H58.9v1.9h23.8v3.8H67.9V7.6h6.7v6.7h-3.8v-3.8h11.9v9.5h-3.8V7.6h6.7v9.5H71.7v26.6
			H60.3v1.9h27.1V38H63.2v1.9h10.5v-6.2h6.2v9h1.9v-9h8.1v1h-7.1v9h-3.8v-9h-4.3v6.2H62.2V37h26.1v9.5h-29v-3.8h11.4V16.1h13.8V8.5
			h-4.8V19h1.9v-7.6h-10v1.9h1.9V8.5h-4.8v21.9h12.8v-1.9H58v-3.8h23.8v-1.9H59.4V7.6h4.8v27.1H57V33.7z"/>
		<path d="M88.9,33.7h9V38h-6.7v-7.6h17.1v-1.9H91.2v-3.8h5.7v-1.9h-5.7V10.4h6.7v9.5h-3.8v-3.8h28v-4.8h-6.2V19h3.3V8.5h-15.7V37
			h12.8V25.6h-3.3v4.8h9.5v-4.8h-2.4v20.9H94.1v-6.7h14.3v3.8h-8.6V12.3h6.7v21.4h19v1h-20V13.3h-4.8v29.5h6.7v-1.9H95v4.8h24.2
			V24.7h4.3v6.7h-11.4v-6.7h5.2V38h-14.7V7.6h17.6v12.4H115v-9.5h8.1v6.7H95V19h1.9v-7.6h-4.8v10.5h5.7v3.8h-5.7v1.9h17.1v3.8H92.2
			V37h4.8v-2.4h-8V33.7z"/>
	</g>
</g>
<g id="Layer_2">
</g>
<g id="Layer_3">
</g>
</svg>
