<svg xmlns="http://www.w3.org/2000/svg" xmlns:xlink="http://www.w3.org/1999/xlink" id="Layer_1" x="0" y="0" version="1.1" viewBox="0 0 125.4 52.3" xml:space="preserve" style="enable-background:new 0 0 125.4 52.3"><style type="text/css">.st0{enable-background:new}</style><g id="Layer_3"><g class="st0"><path d="M58,34.6H34.6L26.4,7.5l29.3,0L44,46.5H33.4L22,8.5H3.5l11.1,37.1h8.3l3.2-10.9H0v-1h27.3l-3.7,12.8h-9.7L2.2,7.5h20.4 l11.5,38.1h9.3L54.5,8.5l-26.8,0l7.6,25.2H58V34.6z"/><path d="M57,33.7h8.6V7.6H85v8.1H61.8v6.2h20.4v5.7H61.8v10.9h25.7v8.1H71.3V33.7h18.5v1H72.2v10.9h14.3v-6.2H60.8V26.6h20.4v-3.8 H60.8v-8.1h23.3V8.5H66.5v26.1H57V33.7z"/><path d="M88.8,33.7h4.8V12.3h28.5V8.5h-18.1v32.3h18.1V22.8h-3.8v23.8h-20V33.7h27.1v1H99.3v10.9h18.1V21.8h5.7v20h-20V7.6h20v5.7 H94.5v21.4h-5.7V33.7z"/></g></g></svg>