<?xml version="1.0" encoding="utf-8"?>
<!-- Generator: Adobe Illustrator 19.2.0, SVG Export Plug-In . SVG Version: 6.00 Build 0)  -->
<svg version="1.1" id="Layer_1" xmlns="http://www.w3.org/2000/svg" xmlns:xlink="http://www.w3.org/1999/xlink" x="0px" y="0px"
	 viewBox="0 0 125.4 52.3" style="enable-background:new 0 0 125.4 52.3;" xml:space="preserve">
<style type="text/css">
	.st0{enable-background:new    ;}
</style>
<g id="Layer_1_1_">
</g>
<g id="Layer_2">
	<g class="st0">
		<path d="M0,33.7h17.1v12.8h-4.5L1.8,7.6h54.4l-10.4,38h8.9V30.8H43.2V13.3H33.1l9.3,33.3H32.3v-8.1h-3.8v8.1h-9.2l9.2-33.3H12.4
			v9.5l18.5,0v11H58v1h-28v-11l-18.5,0V12.3h18.4l-9.2,33.3h7v-8.1h5.7v8.1h7.9l-9.3-33.3h12.3v17.6h11.4v16.6H44.5l10.4-38H3
			l10.4,37.1h2.8V34.6H0V33.7z"/>
		<path d="M89.8,34.6h-7.1v7.1h-9V31.3h-3.8v10.5h-5.7v-4.3h23.3v9h-28v-39H86v9.5H69.8v5.7H86v4.8H73.6V13.3h-8.6v21.4H57v-1h7.1
			V12.3h10.5v14.3H85v-2.9H68.9v-7.6H85V8.5H60.3v37.1h26.1v-7.1H65.1v2.4h3.8V30.4h5.7v10.5h7.1v-7.1h8.1V34.6z"/>
		<path d="M88.8,33.7h8.1v4.8h-5.7V12.3h10.5v14.3H96v-6.7h26.1v-6.7h-10.9v2.9h7.6V8.5h-12.4v29h15.7V26.6H115v14.3h8.1v5.7h-29
			v-5.7h6.7v-7.1h24.7v1h-23.8v7.1H95v3.8h27.1v-3.8H114V25.6h9v12.8h-17.6V7.6h14.3v9.5h-9.5v-4.8h12.8v8.6H96.9v4.8h3.8V13.3h-8.6
			v24.2H96v-2.9h-7.1V33.7z"/>
	</g>
</g>
<g id="Layer_3">
</g>
</svg>
